<mxfile host="65bd71144e">
    <diagram id="KYgUTzJGUgPpstZoWEbi" name="Страница 1">
        <mxGraphModel dx="1042" dy="970" grid="1" gridSize="10" guides="1" tooltips="1" connect="1" arrows="1" fold="1" page="1" pageScale="1" pageWidth="827" pageHeight="1169" math="0" shadow="0">
            <root>
                <mxCell id="0"/>
                <mxCell id="1" parent="0"/>
                <mxCell id="6" value="" style="rounded=0;whiteSpace=wrap;html=1;" parent="1" vertex="1">
                    <mxGeometry x="10" y="10" width="810" height="730" as="geometry"/>
                </mxCell>
                <mxCell id="7" value="&lt;font style=&quot;font-size: 15px&quot;&gt;Builder&lt;/font&gt;" style="text;html=1;strokeColor=none;fillColor=none;align=center;verticalAlign=middle;whiteSpace=wrap;rounded=0;" parent="1" vertex="1">
                    <mxGeometry x="10" y="10" width="70" height="30" as="geometry"/>
                </mxCell>
                <mxCell id="12" value="Car" style="swimlane;fontStyle=1;align=center;verticalAlign=top;childLayout=stackLayout;horizontal=1;startSize=26;horizontalStack=0;resizeParent=1;resizeParentMax=0;resizeLast=0;collapsible=1;marginBottom=0;fontSize=15;" parent="1" vertex="1">
                    <mxGeometry x="290" y="790" width="200" height="360" as="geometry"/>
                </mxCell>
                <mxCell id="13" value="- manufacturer: string&#10;- model: string&#10;- color: string&#10;- bodyType: BodyType&#10;- engine: Engine&#10;- isLuxuryPackage: boolean&#10;- isSafetyPackage: boolean" style="text;strokeColor=none;fillColor=none;align=left;verticalAlign=top;spacingLeft=4;spacingRight=4;overflow=hidden;rotatable=0;points=[[0,0.5],[1,0.5]];portConstraint=eastwest;fontSize=15;" parent="12" vertex="1">
                    <mxGeometry y="26" width="200" height="154" as="geometry"/>
                </mxCell>
                <mxCell id="14" value="" style="line;strokeWidth=1;fillColor=none;align=left;verticalAlign=middle;spacingTop=-1;spacingLeft=3;spacingRight=3;rotatable=0;labelPosition=right;points=[];portConstraint=eastwest;fontSize=15;" parent="12" vertex="1">
                    <mxGeometry y="180" width="200" height="8" as="geometry"/>
                </mxCell>
                <mxCell id="15" value="+ consturctor(&#10;manufacturer: string&#10;model: string&#10;color: string&#10;bodyType: BodyType&#10;engine: Engine&#10;isLuxuryPackage: boolean&#10;isSafetyPackage: boolean&#10;)" style="text;strokeColor=none;fillColor=none;align=left;verticalAlign=top;spacingLeft=4;spacingRight=4;overflow=hidden;rotatable=0;points=[[0,0.5],[1,0.5]];portConstraint=eastwest;fontSize=15;" parent="12" vertex="1">
                    <mxGeometry y="188" width="200" height="172" as="geometry"/>
                </mxCell>
                <mxCell id="16" value="&lt;&lt;Interface&gt;&gt;&#10;CarBuilder" style="swimlane;fontStyle=1;align=center;verticalAlign=top;childLayout=stackLayout;horizontal=1;startSize=50;horizontalStack=0;resizeParent=1;resizeParentMax=0;resizeLast=0;collapsible=1;marginBottom=0;fontSize=15;" parent="1" vertex="1">
                    <mxGeometry x="410" y="70" width="370" height="180" as="geometry"/>
                </mxCell>
                <mxCell id="18" value="" style="line;strokeWidth=1;fillColor=none;align=left;verticalAlign=middle;spacingTop=-1;spacingLeft=3;spacingRight=3;rotatable=0;labelPosition=right;points=[];portConstraint=eastwest;fontSize=15;" parent="16" vertex="1">
                    <mxGeometry y="50" width="370" height="8" as="geometry"/>
                </mxCell>
                <mxCell id="19" value="+ setColor(color: string): CarBuilder&#10;+ chooseBodyType(bodyType: BodyType): CarBuilder&#10;+ setEngine(engine: Engine): CarBuilder&#10;+ setCarLuxury(): CarBuilder&#10;+ setCarSafety(): CarBuilder&#10;+ buildCar(): Car" style="text;strokeColor=none;fillColor=none;align=left;verticalAlign=top;spacingLeft=4;spacingRight=4;overflow=hidden;rotatable=0;points=[[0,0.5],[1,0.5]];portConstraint=eastwest;fontSize=15;" parent="16" vertex="1">
                    <mxGeometry y="58" width="370" height="122" as="geometry"/>
                </mxCell>
                <mxCell id="23" value="1" style="endArrow=open;html=1;endSize=12;startArrow=diamondThin;startSize=14;startFill=0;edgeStyle=orthogonalEdgeStyle;align=left;verticalAlign=bottom;fontSize=15;" parent="1" source="36" target="19" edge="1">
                    <mxGeometry x="-1" y="3" relative="1" as="geometry">
                        <mxPoint x="280" y="147" as="sourcePoint"/>
                        <mxPoint x="440" y="150" as="targetPoint"/>
                    </mxGeometry>
                </mxCell>
                <mxCell id="24" value="BMWBuilder&#10;" style="swimlane;fontStyle=1;align=center;verticalAlign=top;childLayout=stackLayout;horizontal=1;startSize=26;horizontalStack=0;resizeParent=1;resizeParentMax=0;resizeLast=0;collapsible=1;marginBottom=0;fontSize=15;" parent="1" vertex="1">
                    <mxGeometry x="60" y="340" width="330" height="380" as="geometry"/>
                </mxCell>
                <mxCell id="25" value="- manufacturer: string&#10;- model: string&#10;- color: string&#10;- bodyType: BodyType&#10;- engine: Engine&#10;- isLuxuryPackage: boolean&#10;- isSafetyPackage: boolean" style="text;strokeColor=none;fillColor=none;align=left;verticalAlign=top;spacingLeft=4;spacingRight=4;overflow=hidden;rotatable=0;points=[[0,0.5],[1,0.5]];portConstraint=eastwest;fontSize=15;" parent="24" vertex="1">
                    <mxGeometry y="26" width="330" height="144" as="geometry"/>
                </mxCell>
                <mxCell id="26" value="" style="line;strokeWidth=1;fillColor=none;align=left;verticalAlign=middle;spacingTop=-1;spacingLeft=3;spacingRight=3;rotatable=0;labelPosition=right;points=[];portConstraint=eastwest;fontSize=15;" parent="24" vertex="1">
                    <mxGeometry y="170" width="330" height="8" as="geometry"/>
                </mxCell>
                <mxCell id="27" value="+ constructor(model: BMWModel): BMWBuilder&#10;&#10;+ setColor(color: string): CarBuilder&#10;+ chooseBodyType(bodyType: BodyType): CarBuilder&#10;+ setEngine(engine: Engine): CarBuilder&#10;+ setCarLuxury(): CarBuilder&#10;+ setCarSafety(): CarBuilder&#10;+ buildCar(): Car" style="text;strokeColor=none;fillColor=none;align=left;verticalAlign=top;spacingLeft=4;spacingRight=4;overflow=hidden;rotatable=0;points=[[0,0.5],[1,0.5]];portConstraint=eastwest;fontSize=15;" parent="24" vertex="1">
                    <mxGeometry y="178" width="330" height="202" as="geometry"/>
                </mxCell>
                <mxCell id="28" value="AudiBuilder&#10;" style="swimlane;fontStyle=1;align=center;verticalAlign=top;childLayout=stackLayout;horizontal=1;startSize=26;horizontalStack=0;resizeParent=1;resizeParentMax=0;resizeLast=0;collapsible=1;marginBottom=0;fontSize=15;" parent="1" vertex="1">
                    <mxGeometry x="430" y="340" width="330" height="380" as="geometry"/>
                </mxCell>
                <mxCell id="29" value="- manufacturer: string&#10;- model: string&#10;- color: string&#10;- bodyType: BodyType&#10;- engine: Engine&#10;- isLuxuryPackage: boolean&#10;- isSafetyPackage: boolean" style="text;strokeColor=none;fillColor=none;align=left;verticalAlign=top;spacingLeft=4;spacingRight=4;overflow=hidden;rotatable=0;points=[[0,0.5],[1,0.5]];portConstraint=eastwest;fontSize=15;" parent="28" vertex="1">
                    <mxGeometry y="26" width="330" height="144" as="geometry"/>
                </mxCell>
                <mxCell id="30" value="" style="line;strokeWidth=1;fillColor=none;align=left;verticalAlign=middle;spacingTop=-1;spacingLeft=3;spacingRight=3;rotatable=0;labelPosition=right;points=[];portConstraint=eastwest;fontSize=15;" parent="28" vertex="1">
                    <mxGeometry y="170" width="330" height="8" as="geometry"/>
                </mxCell>
                <mxCell id="31" value="+ constructor(model: AudiModel): AudiBuilder&#10;&#10;+ setColor(color: string): CarBuilder&#10;+ chooseBodyType(bodyType: BodyType): CarBuilder&#10;+ setEngine(engine: Engine): CarBuilder&#10;+ setCarLuxury(): CarBuilder&#10;+ setCarSafety(): CarBuilder&#10;+ buildCar(): Car" style="text;strokeColor=none;fillColor=none;align=left;verticalAlign=top;spacingLeft=4;spacingRight=4;overflow=hidden;rotatable=0;points=[[0,0.5],[1,0.5]];portConstraint=eastwest;fontSize=15;" parent="28" vertex="1">
                    <mxGeometry y="178" width="330" height="202" as="geometry"/>
                </mxCell>
                <mxCell id="32" value="" style="endArrow=block;dashed=1;endFill=0;endSize=12;html=1;fontSize=15;exitX=0.5;exitY=0;exitDx=0;exitDy=0;edgeStyle=orthogonalEdgeStyle;" parent="1" source="24" target="19" edge="1">
                    <mxGeometry width="160" relative="1" as="geometry">
                        <mxPoint x="200" y="310" as="sourcePoint"/>
                        <mxPoint x="360" y="310" as="targetPoint"/>
                        <Array as="points">
                            <mxPoint x="225" y="290"/>
                            <mxPoint x="595" y="290"/>
                        </Array>
                    </mxGeometry>
                </mxCell>
                <mxCell id="33" value="" style="endArrow=block;dashed=1;endFill=0;endSize=12;html=1;fontSize=15;" parent="1" source="28" target="19" edge="1">
                    <mxGeometry width="160" relative="1" as="geometry">
                        <mxPoint x="490" y="350" as="sourcePoint"/>
                        <mxPoint x="675" y="279.5000000000002" as="targetPoint"/>
                    </mxGeometry>
                </mxCell>
                <mxCell id="34" value="Use" style="endArrow=open;endSize=12;dashed=1;html=1;fontSize=15;exitX=0.413;exitY=1.014;exitDx=0;exitDy=0;exitPerimeter=0;entryX=0.5;entryY=0;entryDx=0;entryDy=0;" parent="1" source="31" target="12" edge="1">
                    <mxGeometry width="160" relative="1" as="geometry">
                        <mxPoint x="460" y="590" as="sourcePoint"/>
                        <mxPoint x="620" y="590" as="targetPoint"/>
                    </mxGeometry>
                </mxCell>
                <mxCell id="35" value="Use" style="endArrow=open;endSize=12;dashed=1;html=1;fontSize=15;exitX=0.508;exitY=1.014;exitDx=0;exitDy=0;exitPerimeter=0;entryX=0.25;entryY=0;entryDx=0;entryDy=0;" parent="1" source="27" target="12" edge="1">
                    <mxGeometry width="160" relative="1" as="geometry">
                        <mxPoint x="576.29" y="732.828" as="sourcePoint"/>
                        <mxPoint x="400" y="800" as="targetPoint"/>
                    </mxGeometry>
                </mxCell>
                <mxCell id="36" value="Director" style="swimlane;fontStyle=1;align=center;verticalAlign=top;childLayout=stackLayout;horizontal=1;startSize=26;horizontalStack=0;resizeParent=1;resizeParentMax=0;resizeLast=0;collapsible=1;marginBottom=0;fontSize=15;" parent="1" vertex="1">
                    <mxGeometry x="40" y="80" width="240" height="160" as="geometry"/>
                </mxCell>
                <mxCell id="37" value="- builder: CarBuilder" style="text;strokeColor=none;fillColor=none;align=left;verticalAlign=top;spacingLeft=4;spacingRight=4;overflow=hidden;rotatable=0;points=[[0,0.5],[1,0.5]];portConstraint=eastwest;fontSize=15;" parent="36" vertex="1">
                    <mxGeometry y="26" width="240" height="26" as="geometry"/>
                </mxCell>
                <mxCell id="38" value="" style="line;strokeWidth=1;fillColor=none;align=left;verticalAlign=middle;spacingTop=-1;spacingLeft=3;spacingRight=3;rotatable=0;labelPosition=right;points=[];portConstraint=eastwest;strokeColor=inherit;" parent="36" vertex="1">
                    <mxGeometry y="52" width="240" height="8" as="geometry"/>
                </mxCell>
                <mxCell id="39" value="+ constructor(builder: CarBuilder)&#10;+ buildSportCar(): Car&#10;+ buildCivilCar(): Car&#10;+ buildLuxuryCar(): Car" style="text;strokeColor=none;fillColor=none;align=left;verticalAlign=top;spacingLeft=4;spacingRight=4;overflow=hidden;rotatable=0;points=[[0,0.5],[1,0.5]];portConstraint=eastwest;fontSize=15;" parent="36" vertex="1">
                    <mxGeometry y="60" width="240" height="100" as="geometry"/>
                </mxCell>
            </root>
        </mxGraphModel>
    </diagram>
</mxfile>
